<?xml version="1.0" encoding="utf-8"?>
<!-- Generator: Adobe Illustrator 25.4.1, SVG Export Plug-In . SVG Version: 6.00 Build 0)  -->
<svg version="1.1" id="Lager_1" xmlns="http://www.w3.org/2000/svg" xmlns:xlink="http://www.w3.org/1999/xlink" x="0px" y="0px"
	 viewBox="0 0 14400 14400" style="enable-background:new 10 10 4400 4400;" xml:space="preserve">
<style type="text/css">
	.st0{fill:#FF0000;}
	.st1{fill:#FFFFFF;stroke:#1D1D1B;stroke-miterlimit:10;}
	.st2{fill:#1D1D1B;}
	.st4{font-size:777.9948px;}
	.st5{fill:#FFFFFF;}
	.st6{stroke:#1D1D1B;stroke-miterlimit:10;}
</style>
<polygon class="st0" points="13482.5,8918.51 220,8428.92 16.01,6523.04 14382.99,4612.79 "/>
<path class="st1" d="M3640.29,6936.05c434.05-898.88,2070.64-732.66,3432.71-1140.98
	c-483.01,913.21-1166.38,2323.14-2120.47,2317.61c-384.37-348.73-804.47-38.35-1312.25,683.4
	c-507.77-721.75-927.88-1032.13-1312.25-683.4c-954.08,5.53-1637.46-1404.4-2120.47-2317.61
	C1569.64,6203.39,3206.23,6037.17,3640.29,6936.05z"/>
<g>
	<path class="st2" d="M11678.46,6385.81l-67.16,544.69l302.73,37.35c78.63,9.67,132.56,4.3,161.89-16.15
		c39.05-26.78,65.51-79.27,79.27-157.32l37.62,4.62l-59.19,479.6l-37.56-4.62c-1.27-68.27-5.42-112.42-12.59-132.56
		c-9.24-25.24-26.94-46.33-53.02-63.28c-26.09-16.95-67.95-29.01-125.55-36.13l-302.79-37.35l-56,454.21
		c-7.54,60.99-9.46,98.4-5.63,112.26c3.83,13.87,11.95,25.56,24.6,35.01c12.49,9.46,37.78,16.52,75.71,21.2l233.72,28.85
		c77.94,9.62,135.11,11.16,171.72,4.68c36.55-6.48,73.05-23.64,109.55-51.48c47.13-36.82,97.97-94.84,152.48-174.11l40.64,5.05
		l-161.52,330.79l-1061.85-131.02l4.65-37.56l48.77,6c32.49,4.04,64.29,0.05,95.31-11.95c23.03-8.13,39.77-22.58,50.23-43.3
		c10.44-20.72,19.82-64.61,28.11-131.66l110.4-895.24c10.79-87.4,8.61-142.33-6.43-164.86c-21.07-30.07-60.04-48.67-116.94-55.68
		l-48.77-6l4.65-37.62l1061.83,131.02l-22,303.64l-39.58-4.89c-5.31-74.22-14.93-125.97-28.9-155.19
		c-13.87-29.17-36.92-53.02-69.02-71.41c-25.82-13.5-73-24.49-141.43-32.94L11678.46,6385.81z"/>
</g>
<g>
	<path class="st2" d="M7377.04,6456.5l5.34-43.27l843.06,104l-5.34,43.3l-51.43-6.38c-46.81-5.76-85.17-2.18-115.29,10.71
		c-20.8,8.55-38.71,25.29-53.66,50.37c-10.92,17.67-21.28,66.25-31.11,145.76l-95.79,776.47c-18.75,152.03-47.52,260.68-86.47,325.9
		c-38.92,65.24-100.02,116.33-183.3,153.09c-83.28,36.82-179.55,48.51-288.63,35.04c-133.36-16.44-236.83-64.85-310.36-145.15
		c-73.61-80.31-105.14-162.92-94.68-247.9c6.75-54.59,28.93-96.75,66.65-126.53c37.7-29.81,80.7-41.71,129.05-35.73
		c47.55,5.87,85.62,26.01,114.23,60.38c28.61,34.43,40.19,73.82,34.72,118.27c-2.71,21.84-7.81,40.59-15.3,56.29
		c-4.06,7.41-18.81,25.58-44.12,54.51c-25.34,28.93-38.78,50.02-40.43,63.25c-2.5,20.3,5.47,39.1,23.96,56.4
		c26.83,25.5,64.13,41.15,111.68,46.99c33.52,4.14,62.27-1.01,86.2-15.46c23.91-14.45,42.61-39.26,56.11-74.38
		c13.36-35.17,30.34-135.35,50.74-300.64l104.59-847.82c10.01-81.08,11.69-132.32,5.31-153.7c-6.54-21.36-21.86-41.28-46.09-59.69
		c-24.25-18.41-58.6-30.36-103.02-35.84L7377.04,6456.5z"/>
</g>
<g>
	
		<rect x="8277.22" y="6438.13" transform="matrix(0.9119 -0.4104 0.4104 0.9119 -2189.366 4391.4668)" class="st2" width="1714.89" height="1714.89"/>
	<g>
		<path class="st5" d="M8910.18,6748.96c139.41-62.72,279.14-77.7,419.17-44.81c95.18,23.06,184.39,68.32,267.59,135.96
			c81.93,67.48,142.44,144.62,181.49,231.38c57.62,127.99,66.78,261.5,27.57,400.52c-33.02,117.92-98.87,221.6-197.59,311.02
			c-60.83,54.75-127.03,98.24-198.6,130.46c-93.88,42.24-192.44,63.09-295.69,62.59c-124.86-0.53-238.05-35.33-339.58-104.45
			c-98.45-66.6-172.72-155.46-222.77-266.66c-58.1-129.11-72.73-259.51-43.96-391.19c25.53-117.2,84.1-221.13,175.67-311.93
			C8744.57,6840.42,8820.12,6789.49,8910.18,6748.96z M8937.97,7017.26c-45.59,20.51-72.47,57.09-80.76,109.69
			c-6.96,39.66-1.01,80.39,17.8,122.15c27.57,61.31,71.94,126.64,133.2,195.94c61.15,69.31,124.8,126.61,190.84,171.96
			c28.77,18.94,59.03,30.82,90.83,35.41c31.75,4.68,60.38,1.2,85.86-10.25c41.23-18.57,67.5-48.99,78.82-91.2
			c11.29-42.32,5.63-88.65-17.11-139.12c-29.51-65.62-71.94-131.63-127.3-198.09c-55.31-66.39-111.89-118.88-169.7-157.53
			c-35.49-23.75-71.09-39.05-106.74-45.88C8998,7003.58,8966.1,7005.86,8937.97,7017.26z"/>
	</g>
</g>
<g>
	
		<rect x="12374.78" y="6801.49" transform="matrix(0.9986 0.0521 -0.0521 0.9986 411.3052 -673.8228)" class="st1" width="1487.18" height="1487.18"/>
	<g>
		<path class="st2" d="M13152.76,6963.31l-13.71,262.7c106.9-170.04,211.83-252.34,314.69-246.97c46.75,2.44,84.69,18.7,113.8,48.77
			c29.12,30.1,42.66,63.81,40.75,101.21c-1.75,33.18-14.29,60.65-37.56,82.46c-23.32,21.81-50.26,31.9-80.86,30.28
			c-29.81-1.54-62.43-17.96-97.87-49.2c-35.44-31.27-62.06-47.37-79.91-48.3c-15.3-0.8-32.36,6.83-51.06,22.87
			c-40.11,32.91-82.62,88.22-127.62,166L13104.2,7893c-3.4,64.63,2.07,113.94,16.58,147.94c9.83,23.54,28.37,43.67,55.63,60.44
			c27.26,16.79,67.26,26.54,119.97,29.27l-2.39,45.93l-598.08-31.21l2.39-45.93c59.45,3.08,104.19-3.93,134.05-21.12
			c22-12.51,37.99-33.42,48.03-62.72c5.05-14.24,9.3-55.36,12.86-123.37l23.64-452.72c7.12-136.01,8.55-217.17,4.41-243.41
			c-4.25-26.22-13.39-45.67-27.68-58.34s-32.41-19.6-54.56-20.75c-26.3-1.38-56.37,3.45-90.21,14.48l-10.41-46.62l360.81-124.35
			L13152.76,6963.31z"/>
	</g>
</g>
<g>
	<path class="st1" d="M10501.21,6409.62c2.44,30.87,3.67,52.81,3.67,65.8l-3.67,130.35l6.11,467.86l1.17,483.69
		c137.02-94.33,238.77-177.88,305.23-250.67c66.46-72.79,99.67-124.62,99.67-155.51c0-31.72-29.81-50.45-89.42-56.13
		c-31.45-3.16-47.18-11.08-47.18-23.75c0-9.48,4.25-15.43,12.8-17.82c8.5-2.34,44.36-3.56,107.64-3.56l186.11,1.22
		c38.89,0,74.17-0.8,105.83-2.44c32.41,0,48.61,7.33,48.61,21.97c0,11.4-9.35,18.7-28,21.94c-56.85,9.7-105.36,25.87-145.52,48.45
		c-40.22,22.61-90.37,65.8-150.41,129.61c-56.05,59.35-92.18,96.75-108.38,112.18c116.78,56.34,205.24,213.42,265.22,471.34
		c14.66,62.83,35.81,106.52,63.44,130.99c27.63,24.47,78.84,37.96,153.65,40.38c24.39,1.62,36.61,9.11,36.61,22.58
		c0,15.04-20.35,22.55-60.99,22.55h-295.14c-30.07-26.06-49.78-52.55-59.13-79.46c-9.35-26.88-18.12-68.43-26.25-124.64
		c-28.37-195.54-106.21-313.73-233.51-354.46c-4.09,4.06-51.06,38.23-140.9,102.54c-0.8,25.26-1.17,48.08-1.17,68.48
		c0,154.9,9.62,250.48,28.85,286.77s52.6,55.63,100.1,58.07c25.4,0.82,38.09,8.55,38.09,23.16c0,13.02-26.09,19.53-78.21,19.53
		h-354.59c-43.19,0-64.76-6.91-64.76-20.72c0-13.02,9.78-21.15,29.27-24.41c41.44-6.48,67.69-13.81,78.63-21.94
		c11-8.13,22.79-24.79,35.38-50c12.59-25.21,18.91-72.76,18.91-142.71l-1.22-189.01l-12.22-859.8c0-96.75-9.62-164.44-28.85-203.06
		c-19.23-38.6-57.49-62.37-114.81-71.35c-20.51-3.24-30.71-10.55-30.71-21.94c0-13.81,33.74-22.74,101.21-26.83
		c30.87-2.44,63.81-6.08,98.77-10.97C10418.64,6417.35,10468.69,6411.26,10501.21,6409.62z"/>
</g>
<path class="st6" d="M6026.46,6465.7c-46.98,55.88-111.53,300.51-176.92,496.22c-12.35,36.96,132.5,125.48,132.5,125.48
	s-168.9-10.79-188.16,27.64c-32.06,63.98-77.53,137.81-121.68,190.99c-30.38,36.59-59.3,69.1-87.29,100.53
	c-43.93,49.32,49.24,204.29,49.24,204.29s-137.21-126.84-195.59-98.54c-63.38,30.72-133.54,46.22-247.83,54.77
	c-39.44,2.95-52.46,4.8-89.29,8.25c-72.26,6.76-118.07,310.86-118.07,310.86s-69.18-302.56-143.29-305.15
	c-139.17-4.87-221.6-0.39-334.54-20.47c-41.51-7.38-75.64,111.62-75.64,111.62s-5.07-120.84-40.13-125.45
	c-73.38-9.66-197.23-41.51-269.08-60.83c107.35-463.86,529.87-692.43,856.72-801.98c35.91-12.04,96.17-251.15,96.17-251.15
	s36.37,211.12,99.72,193.95C5451.51,6551.33,5723.12,6498.14,6026.46,6465.7z"/>
<path class="st6" d="M1254.12,6465.7c46.98,55.88,111.53,300.51,176.92,496.22c12.35,36.96-132.5,125.48-132.5,125.48
	s168.89-10.79,188.16,27.64c32.06,63.98,77.53,137.81,121.68,190.99c30.38,36.59,59.3,69.1,87.29,100.53
	c43.93,49.32-49.24,204.29-49.24,204.29s137.21-126.84,195.59-98.54c63.38,30.72,133.54,46.22,247.83,54.77
	c39.44,2.95,52.46,4.8,89.29,8.25c72.26,6.76,118.07,310.86,118.07,310.86s69.18-302.56,143.29-305.15
	c139.17-4.87,221.6-0.39,334.54-20.47c41.51-7.38,75.64,111.62,75.64,111.62s5.07-120.84,40.13-125.45
	c73.38-9.66,197.23-41.51,269.08-60.83c-107.35-463.86-529.87-692.43-856.72-801.98c-35.91-12.04-96.17-251.15-96.17-251.15
	s-36.37,211.12-99.72,193.95C1829.06,6551.33,1557.45,6498.14,1254.12,6465.7z"/>
<path class="st1" d="M1667.13,6836.61c0.51,80.69,119.15,423.47,291.15,493.65c198.33,80.92,561.56,1.26,910.25-27.61
	c-140.4-193.85-335.85-332.87-647.79-381.83C1844,6861.68,1753.6,6895.51,1667.13,6836.61z"/>
<path class="st1" d="M5613.45,6836.61c-0.51,80.69-119.15,423.47-291.15,493.65c-198.33,80.92-561.56,1.26-910.25-27.61
	c140.4-193.85,335.85-332.87,647.79-381.83C5436.57,6861.68,5526.97,6895.51,5613.45,6836.61z"/>
</svg>
