<svg xmlns="http://www.w3.org/2000/svg" viewBox="0 0 8173.22 2449.48"><defs><style>.cls-1{fill:#FF0000;}.cls-2,.cls-4,.cls-5,.cls-6{fill:#fff;}.cls-2,.cls-5,.cls-6,.cls-7{stroke:#FFFFFF;}.cls-2{stroke-miterlimit:fff;}.cls-3{fill:#1d1d1b;}.cls-5{stroke-miterlimit:5.69;stroke-width:0.57px;}.cls-6,.cls-7{stroke-miterlimit:5.69;stroke-width:0.57px;}</style></defs><g id="Lager_2" data-name="Lager 2"><g id="Lager_1-2" data-name="Lager 1"><polygon class="cls-1" points="7660.94 2449.48 116.05 2170.95 0 1086.72 8173.22 0 7660.94 2449.48"/><path class="cls-2" d="M2061.81,1321.68c246.93-511.37,1178-416.81,1952.83-649.09-274.78,519.51-663.54,1321.6-1206.31,1318.46-218.66-198.39-457.65-21.82-746.52,388.78-288.87-410.6-527.86-587.17-746.53-388.78C772.52,1994.19,383.75,1192.1,109,672.59,883.84,904.87,1814.88,810.31,2061.81,1321.68Z"/><path class="cls-3" d="M6634.64,1008.65l-38.21,309.87,172.22,21.25q67.1,8.25,92.1-9.19,33.32-22.85,45.09-89.5l21.41,2.63-33.68,272.84-21.36-2.63q-1.1-58.26-7.17-75.41-7.87-21.54-30.16-36T6763.46,1382l-172.26-21.25-31.85,258.39q-6.43,52.05-3.21,63.87a36.56,36.56,0,0,0,14,19.91c7.1,5.39,21.49,9.4,43.07,12.06l133,16.42q66.51,8.21,97.69,2.66t62.32-29.29q40.21-31.41,86.74-99l23.12,2.88-91.88,188.18-604.08-74.54,2.65-21.36,27.74,3.41a110.32,110.32,0,0,0,54.22-6.8q19.67-6.93,28.58-24.63t16-74.9l62.81-509.29q9.19-74.58-3.66-93.79-18-25.67-66.53-31.68l-27.74-3.41,2.64-21.4,604.07,74.53-12.52,172.74-22.52-2.78q-4.53-63.33-16.44-88.29t-39.26-40.62q-22-11.52-80.46-18.74Z"/><path class="cls-3" d="M4187.61,1048.87l3-24.62,479.6,59.16-3,24.64-29.26-3.63q-39.95-4.92-65.59,6.09-17.74,7.29-30.53,28.66-9.32,15.07-17.69,82.92l-54.5,441.72q-16,129.74-49.19,185.4t-104.28,87.09q-71.06,31.42-164.2,19.94-113.79-14-176.56-82.58t-53.86-141q5.76-46.59,37.92-72t73.41-20.33q40.58,5,65,34.35t19.75,67.28q-2.31,18.64-8.71,32c-2.3,4.22-10.7,14.56-25.09,31s-22.07,28.46-23,36q-2.14,17.31,13.63,32.08,22.89,21.76,63.53,26.73,28.61,3.54,49-8.79t31.92-42.32q11.4-30,28.86-171l59.5-482.31c5.7-46.13,6.65-75.28,3-87.44s-12.43-23.48-26.22-34-33.33-17.27-58.6-20.39Z"/><rect class="cls-3" x="4699.7" y="1038.34" width="975.58" height="975.58" transform="translate(-169.33 2263.4) rotate(-24.23)"/><path class="cls-4" d="M5059.79,1215.24q119-53.52,238.47-25.49,81.21,19.68,152.22,77.35,69.92,57.59,103.25,131.63,49.17,109.21,15.69,227.85Q5541.24,1727.2,5457,1803.51q-51.92,46.73-113,74.22a400.67,400.67,0,0,1-168.22,35.61q-106.55-.45-193.18-59.42-84-56.84-126.73-151.7-49.57-110.17-25-222.55,21.78-100,99.94-177.45Q4983,1249.8,5059.79,1215.24Zm15.81,152.64q-38.9,17.49-45.94,62.4-5.94,33.84,10.13,69.49,23.52,52.32,75.77,111.47t108.57,97.82q24.55,16.17,51.67,20.15t48.85-5.84q35.18-15.84,44.84-51.88t-9.74-79.14q-25.18-56-72.42-112.69T5190.79,1390q-30.28-20.26-60.72-26.1T5075.6,1367.88Z"/><rect class="cls-5" x="7030.69" y="1244.62" width="846" height="846" transform="translate(5399.98 9024.31) rotate(-87.01)"/><path class="cls-3" d="M7473.35,1337.18l-7.8,149.45q91.23-145.1,179-140.5,39.89,2.08,64.74,27.75t23.18,57.58q-1.5,28.3-21.37,46.91t-46,17.22q-25.44-1.3-55.68-28T7564,1440.13c-8.7-.46-18.41,3.88-29,13q-34.23,28.08-72.61,94.43l-16.61,318.51q-2.91,55.14,9.43,84.16,8.39,20.09,31.65,34.38t68.25,16.65l-1.36,26.13-340.25-17.75,1.36-26.13q50.73,2.63,76.26-12,18.78-10.68,27.33-35.68,4.31-12.15,7.31-70.18l13.45-257.55q6.08-116.07,2.51-138.47c-2.42-14.92-7.62-26-15.75-33.19s-18.43-11.15-31-11.81q-22.46-1.17-51.32,8.24l-5.93-26.52,205.26-70.74Z"/><path class="cls-6" d="M5964.91,1022.2q2.09,26.34,2.09,37.43l-2.09,74.15,3.48,266.16.67,275.17q116.91-80.49,173.64-142.6t56.7-88.47q0-27.07-50.87-31.93-26.83-2.7-26.84-13.51,0-8.1,7.28-10.14t61.24-2l105.87.7q33.19,0,60.21-1.39,27.66,0,27.65,12.5,0,9.72-15.93,12.48-48.51,8.28-82.78,27.56T6199.66,1512q-47.82,50.64-61.65,63.81,99.64,48.09,150.88,268.14,12.51,53.63,36.09,74.52t87.41,23c13.87.93,20.82,5.19,20.82,12.85q0,12.84-34.69,12.83h-167.9Q6205,1944.9,6197,1921.93T6182,1851q-24.21-166.86-132.84-201.65-3.48,3.46-80.15,58.33-.69,21.55-.67,39,0,132.18,16.41,163.14t56.95,33q21.67.69,21.67,13.17,0,11.12-44.5,11.11H5817.19q-36.85,0-36.84-11.78,0-11.11,16.65-13.89,35.37-5.54,44.73-12.48t20.13-28.45q10.74-21.51,10.76-81.18l-.7-107.53L5865,1222.69q0-82.56-16.41-115.52t-65.31-40.59c-11.67-1.84-17.47-6-17.47-12.48q0-11.79,57.57-15.26,26.35-2.08,56.19-6.24Q5937.14,1023.58,5964.91,1022.2Z"/><path class="cls-7" d="M3419.28,1054.1c-26.73,31.79-63.45,171-100.65,282.29-7,21,75.38,71.39,75.38,71.39s-96.09-6.14-107,15.72c-18.24,36.4-44.11,78.4-69.23,108.65-17.28,20.82-33.73,39.32-49.65,57.2-25,28.05,28,116.21,28,116.21s-78.06-72.15-111.27-56c-36.06,17.47-76,26.29-141,31.15-22.44,1.68-29.84,2.73-50.8,4.7-41.1,3.84-67.16,176.84-67.16,176.84s-39.36-172.12-81.52-173.6c-79.17-2.77-126.07-.22-190.32-11.64-23.61-4.2-43,63.5-43,63.5s-2.88-68.75-22.83-71.37c-41.74-5.49-112.2-23.61-153.07-34.6,61.07-263.89,301.43-393.92,487.38-456.24,20.42-6.85,54.71-142.88,54.71-142.88s20.69,120.11,56.73,110.34C3092.2,1102.81,3246.71,1072.55,3419.28,1054.1Z"/><path class="cls-7" d="M704.35,1054.1c26.72,31.79,63.45,171,100.64,282.29,7,21-75.37,71.39-75.37,71.39s96.08-6.14,107,15.72c18.24,36.4,44.11,78.4,69.22,108.65,17.28,20.82,33.74,39.32,49.66,57.2,25,28.05-28,116.21-28,116.21s78.06-72.15,111.27-56c36,17.47,76,26.29,141,31.15,22.44,1.68,29.85,2.73,50.8,4.7,41.11,3.84,67.17,176.84,67.17,176.84s39.36-172.12,81.52-173.6c79.17-2.77,126.06-.22,190.31-11.64,23.62-4.2,43,63.5,43,63.5s2.89-68.75,22.83-71.37c41.75-5.49,112.2-23.61,153.08-34.6-61.07-263.89-301.44-393.92-487.38-456.24-20.43-6.85-54.71-142.88-54.71-142.88s-20.69,120.11-56.73,110.34C1031.42,1102.81,876.91,1072.55,704.35,1054.1Z"/><path class="cls-6" d="M939.3,1265.11c.29,45.9,67.79,240.9,165.64,280.83,112.82,46,319.46.72,517.83-15.71C1542.9,1420,1431.71,1340.87,1254.25,1313,1039.92,1279.37,988.5,1298.61,939.3,1265.11Z"/><path class="cls-6" d="M3184.32,1265.11c-.29,45.9-67.78,240.9-165.63,280.83-112.83,46-319.47.72-517.83-15.71,79.87-110.28,191.06-189.36,368.52-217.22C3083.7,1279.37,3135.12,1298.61,3184.32,1265.11Z"/></g></g></svg>